# xmcd
# 
# Track frame offsets:
#     150
#     16041
#     31396
#     46791
#     62373
#     78999
#     94655
#     104549
#     119223
#     137987
#     150597
#     165233
#     181327
#     200726
#     216729
#     234168
#     249659
#     264252
#     279096
#     288909
#     302445
#     316948
# 
# Disc length: 4391
# 
# Revision: 3
# Processed by: cddbd v1.5.2PL0 Copyright (c) Steve Scherf et al.
# Submitted via: fre:ac v1.0.17
# 
DISCID=25112516
DTITLE=張德蘭 - 張德蘭小調情常在
DYEAR=0
DGENRE=Vocal
TTITLE0=紅豆相思
TTITLE1=分飛燕
TTITLE2=一水隔天涯
TTITLE3=痴情淚
TTITLE4=平湖秋月
TTITLE5=悲秋風
TTITLE6=醉紅塵
TTITLE7=斷腸夢
TTITLE8=恨綿綿
TTITLE9=紅燭淚
TTITLE10=恨悠悠
TTITLE11=等待
TTITLE12=絲絲淚
TTITLE13=月光光
TTITLE14=相思淚
TTITLE15=荷花香
TTITLE16=百花亭之戀
TTITLE17=網中人
TTITLE18=雞公仔
TTITLE19=午夜結他
TTITLE20=春天新希望
TTITLE21=媽媽好
EXTD=
EXTT0=
EXTT1=
EXTT2=
EXTT3=
EXTT4=
EXTT5=
EXTT6=
EXTT7=
EXTT8=
EXTT9=
EXTT10=
EXTT11=
EXTT12=
EXTT13=
EXTT14=
EXTT15=
EXTT16=
EXTT17=
EXTT18=
EXTT19=
EXTT20=
EXTT21=
PLAYORDER=
